<svg width="60" height="60" viewBox="0 0 60 60" fill="none" xmlns="http://www.w3.org/2000/svg">
<g clip-path="url(#clip0_513_189)">
<path d="M48.6792 50.6007L42.7414 35.2371C42.4539 34.4932 42.5741 33.6515 43.0647 33.0226C45.7344 29.6014 47.3402 25.3096 47.383 20.6438C47.4861 9.37772 38.3425 0.0786632 27.0763 0.000381941C15.7136 -0.0784852 6.47785 9.10855 6.47785 20.4529C6.47785 21.6313 6.57804 22.7864 6.76953 23.9103C6.83668 24.304 6.72488 24.7067 6.46262 25.0078L1.46082 30.7506C0.891404 31.4044 1.12426 32.4232 1.92113 32.7648L6.04648 34.5328C6.27711 34.6316 6.40191 34.8833 6.34109 35.1267L5.87012 37.0107C5.74191 37.5236 5.9416 38.0628 6.37308 38.3683L7.19621 38.9513C7.35652 39.0648 7.39847 39.2796 7.30332 39.4517C7.05746 39.8962 6.96769 40.4386 7.11183 41.0073C7.34597 41.9308 8.20191 42.5612 9.15465 42.5604C9.3275 42.5603 9.47398 42.6873 9.49824 42.8585L9.64273 43.8785C9.72137 44.4332 9.70062 44.9973 9.58168 45.5447L9.12781 47.6328C8.96305 48.3909 9.0998 49.1834 9.50914 49.8424C10.1773 50.9183 11.4515 51.4557 12.6883 51.1832L21.9012 49.1536C22.2095 49.0858 22.5211 49.253 22.6348 49.5474L26.3737 59.2214C26.6161 59.8484 27.3206 60.1601 27.9475 59.9179L47.9826 52.1746C48.6097 51.9323 48.9214 51.2276 48.6792 50.6007Z" fill="#FFCBBE"/>
<path d="M48.6792 50.6007L42.7414 35.2371C42.4544 34.4948 42.5722 33.6536 43.062 33.0262C45.7333 29.6043 47.3402 25.3112 47.383 20.6438C47.4697 11.155 40.9968 3.06202 32.2211 0.697876C37.9439 4.38002 41.7305 10.8314 41.664 18.1035C41.6268 22.1585 40.409 25.9312 38.3383 29.0952C37.2695 30.7286 37.0535 32.7768 37.7571 34.5975L42.9602 48.0603C43.2024 48.6872 42.8907 49.3919 42.2638 49.6341L25.2148 56.2232L26.3736 59.2213C26.6159 59.8483 27.3205 60.16 27.9474 59.9178L47.9825 52.1745C48.6097 51.9323 48.9214 51.2276 48.6792 50.6007Z" fill="#EAAC9D"/>
<path d="M36.8083 17.1289C36.0162 16.8045 35.1941 16.7187 34.4145 16.8316C33.9079 14.8551 32.1148 13.3942 29.9803 13.3942C29.6015 13.3942 29.2336 13.4411 28.8815 13.5279C28.3465 11.5938 26.575 10.1732 24.4706 10.1732C21.9427 10.1732 19.8934 12.2225 19.8934 14.7504C19.8934 14.8331 19.8956 14.9151 19.9001 14.9967C19.9183 15.3291 19.6961 15.6291 19.3702 15.6977C18.5913 15.8614 17.8856 16.2229 17.3078 16.7277C17.14 16.8744 16.9158 16.9329 16.6979 16.8861C16.0077 16.7376 15.2711 16.7465 14.5369 16.9456C12.6497 17.4576 11.329 19.1234 11.1769 21.0032C11.1471 21.3713 13.795 24.0418 13.795 24.0418L17.5854 25.1952L32.4829 25.2942C32.4829 25.2942 39.6844 20.8496 39.454 20.073C39.07 18.7785 38.1232 17.6675 36.8083 17.1289Z" fill="#F9F6F9"/>
<path d="M38.2213 18.0491C38.2006 18.3136 38.157 18.5789 38.0878 18.8424C37.5395 20.9292 35.6707 22.265 33.6583 22.2648V22.2649H33.6366C33.6112 22.2648 33.5858 22.2655 33.5602 22.2649H29.4468C29.1963 22.2649 28.9686 22.4258 28.9 22.6668C28.5924 23.7466 27.5991 24.5374 26.4207 24.5374H18.3628C17.1843 24.5374 16.1911 23.7466 15.8834 22.6668C15.8148 22.4259 15.5872 22.2649 15.3366 22.2649H14.4174C14.4056 22.2651 14.3938 22.2648 14.382 22.2649H14.3323V22.2645C13.1407 22.2656 12.0157 21.7979 11.1782 21.0033C11.1485 21.3713 11.1625 21.7475 11.227 22.125C11.6125 24.3856 13.5665 25.9409 15.7404 25.939V25.9393H15.79C15.8019 25.9392 15.8136 25.9395 15.8255 25.9393H16.7448C16.9953 25.9393 17.2229 26.1002 17.2916 26.3413C17.5992 27.421 18.5925 28.2118 19.7709 28.2118H27.8288C29.0073 28.2118 30.0005 27.421 30.3082 26.3413C30.3768 26.1003 30.6044 25.9393 30.855 25.9393H34.9685C34.994 25.9399 35.0666 25.9393 35.0666 25.9393V25.9392C37.0789 25.9394 38.9477 24.6036 39.496 22.5168C39.9261 20.879 39.3913 19.1707 38.2213 18.0491Z" fill="#DDDAEC"/>
<path d="M36.3336 21.0442C41.7041 21.0442 46.0577 16.6905 46.0577 11.32C46.0577 5.94958 41.7041 1.59595 36.3336 1.59595C30.9631 1.59595 26.6095 5.94958 26.6095 11.32C26.6095 16.6905 30.9631 21.0442 36.3336 21.0442Z" fill="#FFD064"/>
<path d="M41.7622 3.25134C42.8074 4.80173 43.4176 6.66947 43.4176 8.67994C43.4176 14.0504 39.064 18.404 33.6935 18.404C31.6831 18.404 29.8153 17.7937 28.2649 16.7486C30.0117 19.3398 32.9735 21.0442 36.3336 21.0442C41.7041 21.0442 46.0577 16.6905 46.0577 11.3201C46.0577 7.95994 44.3533 4.99814 41.7622 3.25134Z" fill="#FFC250"/>
<path d="M36.6938 16.3356C34.862 16.3356 33.1232 15.4503 32.0425 13.9671C31.7526 13.5693 31.8401 13.0117 32.238 12.7218C32.6357 12.4317 33.1933 12.5192 33.4833 12.9171C34.2297 13.9412 35.4299 14.5527 36.6939 14.5527C37.9579 14.5527 39.1581 13.9412 39.9047 12.917C40.1946 12.5192 40.7519 12.4316 41.1501 12.7217C41.5478 13.0117 41.6353 13.5692 41.3453 13.967C40.2643 15.4501 38.5255 16.3356 36.6938 16.3356Z" fill="#E28086"/>
<path d="M53.866 13.8614C53.3138 13.4892 52.6108 13.4025 51.9861 13.6293C51.8306 13.6856 51.6839 13.76 51.5482 13.8498C51.4126 13.76 51.2659 13.6856 51.1104 13.6293C50.4855 13.4025 49.7825 13.4892 49.2302 13.8614C48.822 14.1366 48.7142 14.6905 48.9894 15.0988C49.2644 15.507 49.8181 15.6147 50.2268 15.3397C50.2657 15.3134 50.377 15.2402 50.5025 15.3052C50.817 15.4678 50.7607 16.1121 51.5417 16.1516C52.3211 16.1238 52.235 15.3912 52.5938 15.3052C52.722 15.2745 52.8306 15.3135 52.8698 15.3397C53.278 15.6148 53.832 15.5067 54.1071 15.0986C54.3824 14.6904 54.2744 14.1365 53.866 13.8614Z" fill="#DDDAEC"/>
<path d="M58.4608 8.68764C57.7046 8.17776 56.7419 8.05905 55.8858 8.36936C55.545 8.49299 55.2357 8.68049 54.9699 8.91557C54.704 8.68037 54.3947 8.49299 54.0539 8.36936C53.1975 8.05858 52.2351 8.17776 51.4791 8.68752C51.0709 8.96268 50.9631 9.51663 51.2383 9.92491C51.5134 10.3332 52.0674 10.4409 52.4757 10.1657C52.7652 9.97049 53.119 9.92655 53.4462 10.0453C53.7733 10.1639 54.0167 10.4244 54.1138 10.76C54.3294 11.6 55.611 11.5996 55.8262 10.7599C55.9233 10.4244 56.1666 10.1639 56.4938 10.0453C56.8209 9.92666 57.1748 9.97061 57.4643 10.1658C57.8727 10.4411 58.4266 10.3332 58.7017 9.92502C58.9767 9.51674 58.8689 8.9628 58.4608 8.68764Z" fill="#DDDAEC"/>
<path d="M32.8268 11.041C32.0225 11.041 31.2593 10.6524 30.7847 10.0016C30.4947 9.60371 30.5821 9.04613 30.9798 8.75621C31.3775 8.46605 31.935 8.55348 32.2253 8.95133C32.3674 9.14633 32.5867 9.25824 32.8268 9.25824C33.0669 9.25824 33.2861 9.14645 33.4281 8.95145C33.7181 8.55359 34.2756 8.46617 34.6734 8.75609C35.0713 9.04602 35.1588 9.60359 34.8689 10.0014C34.3944 10.6523 33.6311 11.041 32.8268 11.041Z" fill="#5E54AC"/>
<path d="M40.5608 11.041C39.7565 11.041 38.9932 10.6524 38.5187 10.0014C38.2288 9.60353 38.3163 9.04595 38.7142 8.75603C39.1119 8.46611 39.6695 8.55353 39.9595 8.95138C40.1015 9.14638 40.3207 9.25818 40.5608 9.25818C40.8009 9.25818 41.0202 9.14638 41.1622 8.95138C41.4522 8.55353 42.0098 8.46611 42.4075 8.75603C42.8054 9.04595 42.8929 9.60353 42.603 10.0014C42.1286 10.6522 41.3652 11.041 40.5608 11.041Z" fill="#5E54AC"/>
</g>
<defs>
<clipPath id="clip0_513_189">
<rect width="60" height="60" fill="white"/>
</clipPath>
</defs>
</svg>
