<svg width="21" height="20" viewBox="0 0 21 20" fill="none" xmlns="http://www.w3.org/2000/svg">
<path d="M15.2954 11.6668C16.3305 11.6668 17.1695 12.5058 17.1695 13.5409V14.0204C17.1695 14.7657 16.9031 15.4863 16.4185 16.0525C15.1107 17.5804 13.1214 18.3344 10.5003 18.3344C7.87871 18.3344 5.89036 17.5802 4.58511 16.0516C4.10197 15.4858 3.83655 14.7663 3.83655 14.0223V13.5409C3.83655 12.5058 4.67559 11.6668 5.71061 11.6668H15.2954ZM15.2954 12.9168H5.71061C5.36595 12.9168 5.08655 13.1963 5.08655 13.5409V14.0223C5.08655 14.4687 5.24581 14.9004 5.53568 15.2398C6.58011 16.4629 8.21834 17.0844 10.5003 17.0844C12.7822 17.0844 14.4219 16.4629 15.4689 15.2397C15.7597 14.8999 15.9195 14.4675 15.9195 14.0204V13.5409C15.9195 13.1963 15.64 12.9168 15.2954 12.9168ZM10.5003 1.67073C12.8015 1.67073 14.667 3.53622 14.667 5.8374C14.667 8.13859 12.8015 10.0041 10.5003 10.0041C8.19907 10.0041 6.33359 8.13859 6.33359 5.8374C6.33359 3.53622 8.19907 1.67073 10.5003 1.67073ZM10.5003 2.92073C8.88946 2.92073 7.58359 4.22658 7.58359 5.8374C7.58359 7.44823 8.88946 8.75408 10.5003 8.75408C12.1111 8.75408 13.417 7.44823 13.417 5.8374C13.417 4.22658 12.1111 2.92073 10.5003 2.92073Z" fill="white"/>
</svg>
